<svg xmlns="http://www.w3.org/2000/svg" viewBox="0 0 64 64" width="64" height="64">
  <defs>
    <linearGradient id="g" x1="0" y1="0" x2="1" y2="1">
      <stop offset="0" stop-color="#3b82f6"/>
      <stop offset="1" stop-color="#38bdf8"/>
    </linearGradient>
  </defs>
  <rect width="64" height="64" rx="14" fill="url(#g)"/>
  <g fill="none" stroke="#fff" stroke-width="3.2" stroke-linecap="round" stroke-linejoin="round">
    <path d="M32 14c-6 0-9 4-9 8 0 1-3 2-3 6s3 5 3 6c0 4 3 8 9 8"/>
    <path d="M32 14c6 0 9 4 9 8 0 1 3 2 3 6s-3 5-3 6c0 4-3 8-9 8"/>
    <path d="M32 14v38"/>
    <circle cx="23" cy="28" r="2.2" fill="#fff" stroke="none"/>
    <circle cx="41" cy="28" r="2.2" fill="#fff" stroke="none"/>
    <circle cx="26" cy="40" r="2.2" fill="#fff" stroke="none"/>
    <circle cx="38" cy="40" r="2.2" fill="#fff" stroke="none"/>
  </g>
</svg>
